<svg  xmlns="http://www.w3.org/2000/svg" viewBox="0 0 278 150"><defs><style>.cls-1{fill:#262a82;}.cls-2{fill:#f3c300;}</style></defs><title>Guild Mortgage</title><g id="Layer_5"><path class="cls-1" d="M45.88,106.07c6.08,0,9.8,4.08,9.8,10.61V133H51.75V117.6c0-5.1-2.55-8-6.84-8-4,0-7.29,3-7.29,8.16V133H33.74V117.5c0-5-2.61-7.86-6.79-7.86S19.6,113.11,19.6,118v15H15.67V106.63H19.6v4.44c1.74-2.61,4.08-5,8.52-5a9,9,0,0,1,8.48,5.25,10.49,10.49,0,0,1,9.28-5.25"/><path class="cls-1" d="M77.35,133.62A13.53,13.53,0,0,1,63.67,119.9a13.76,13.76,0,1,1,13.68,13.72m0-24.08c-5.72,0-9.65,4.54-9.65,10.25s4.19,10.31,9.75,10.31c5.72,0,9.7-4.54,9.7-10.2s-4.24-10.36-9.8-10.36"/><path class="cls-1" d="M103.3,133H99.37V106.63h3.93v6.89c1.94-4.39,5.77-7.56,10.77-7.35v4.23h-.31c-5.77,0-10.46,4.14-10.46,12.1Z"/><path class="cls-1" d="M126.28,125.51c0,3.21,1.78,4.39,4.44,4.39a8.28,8.28,0,0,0,3.82-.92v3.37a9.88,9.88,0,0,1-4.74,1.12c-4.24,0-7.45-2.09-7.45-7.45V98.66h3.93v8h8.37v3.47h-8.37Z"/><path class="cls-1" d="M155.76,141.28a20.66,20.66,0,0,1-12-3.67l1.78-3.07a16.83,16.83,0,0,0,10.16,3.37c5.81,0,9.59-3.21,9.59-9.39v-3.11c-2.3,3.06-5.51,5.56-10.36,5.56a12.45,12.45,0,0,1,0-24.9,12.38,12.38,0,0,1,10.31,5.3v-4.74h3.93v21.79c0,8.52-5.31,12.86-13.42,12.86m0-31.74c-5,0-9.14,3.42-9.14,8.93a8.91,8.91,0,0,0,9.14,9c5,0,9.69-3.57,9.69-9s-4.69-9-9.69-9"/><path class="cls-1" d="M180.59,111.68l-1.18-3.22a21.9,21.9,0,0,1,9.6-2.19c7.19,0,11.23,3.67,11.23,10.61V133h-3.78v-4a11.57,11.57,0,0,1-9.55,4.54c-4.89,0-9.84-2.75-9.84-8.26s4.59-8.58,11.27-8.58a28.19,28.19,0,0,1,8.12,1.12v-.91c0-4.75-2.91-7.2-7.86-7.2a18.41,18.41,0,0,0-8,1.94m.46,13.47c0,3.37,3.06,5.31,6.63,5.31,4.85,0,8.83-3,8.83-7.14v-2.56a27.58,27.58,0,0,0-7.76-1.12c-4.95,0-7.7,2.14-7.7,5.51"/><path class="cls-1" d="M221.82,141.28a20.66,20.66,0,0,1-12-3.67l1.78-3.07a16.83,16.83,0,0,0,10.16,3.37c5.82,0,9.59-3.21,9.59-9.39v-3.11c-2.29,3.06-5.51,5.56-10.36,5.56a12.45,12.45,0,0,1,0-24.9,12.38,12.38,0,0,1,10.31,5.3v-4.74h3.93v21.79c0,8.52-5.31,12.86-13.42,12.86m0-31.74c-5,0-9.14,3.42-9.14,8.93a8.91,8.91,0,0,0,9.14,9c5,0,9.7-3.57,9.7-9s-4.7-9-9.7-9"/><path class="cls-1" d="M257.18,130.21a10.93,10.93,0,0,0,8.32-3.73l2.45,2.19a13.61,13.61,0,0,1-10.87,5c-7.25,0-13.17-5.56-13.17-13.78,0-7.65,5.36-13.77,12.66-13.77,7.81,0,12.3,6.22,12.3,14a10.8,10.8,0,0,1-.05,1.22H247.89c.57,5.72,4.65,8.94,9.29,8.94m7.71-11.84c-.41-4.8-3.17-9-8.42-9-4.59,0-8.06,3.83-8.58,9Z"/><polygon class="cls-2" points="152.53 10.12 173.49 10.12 152.53 29.29 152.53 10.12"/><path class="cls-1" d="M48.92,88.74c-24.42,0-39.8-17-39.8-40v-.23c0-22.09,15.4-40.19,41.44-40.19A57.44,57.44,0,0,1,77.8,14.66V29.25c-7.69-4.54-13.68-6.8-23-6.8C39.68,22.45,31,34.19,31,48.22v.24c0,15.09,6.26,26.18,18.3,26.18,5,0,9.44-.12,12.91-3.34V55.66H48.39V43.43H80.44V76.62A47,47,0,0,1,48.92,88.74"/><rect class="cls-1" x="152.53" y="35.29" width="19.55" height="52.16"/><polygon class="cls-1" points="183.18 10.28 203.03 29.29 203.03 87.45 183.18 87.45 183.18 10.28"/><path class="cls-1" d="M108.48,35.29V67.65c0,4.3,2.46,5.91,6.21,5.91s7.11-2.43,8.47-3.71V35.29h19V87.45H124V80.9c-3.12,3.87-9.44,7.84-17.81,7.84-11.91,0-16.69-7.51-16.69-17.6V35.29Z"/><path class="cls-1" d="M235.4,33.25c5.76,0,9.59,1.82,11.42,3.11V10.12h19.32V87.45H247.79V82c-3.55,4.08-7.83,6.87-14.78,6.87-13.8,0-21.84-9.88-21.84-27.69,0-17,10.21-27.91,24.23-27.91m4.23,41.12a9,9,0,0,0,7.19-3.12V49.13a14.42,14.42,0,0,0-6.44-1.51C235,47.62,232,52,232,61.37c0,8.59,2.79,13,7.62,13"/></g></svg>
