<svg width="62" height="64" viewBox="0 0 62 64" fill="none" xmlns="http://www.w3.org/2000/svg">
  <path d="M18.466 51.356a8.623 8.623 0 1 1 0-17.245 8.623 8.623 0 0 1 0 17.245zm0-13.623a5 5 0 1 0 0 10.001 5 5 0 0 0 0-10zM48.49 14.89L33.444 29.933 31 27.378l15.044-15.045 2.445 2.556zM61.822.467v20h-7.044V27.4h-6.934v7.089h-6.889c.904 2.41 1.37 4.96 1.378 7.533A20.956 20.956 0 0 1 21.69 63.49a21.444 21.444 0 1 1 6.378-41.844L49.422.422l12.4.045zm-3.355 3.666H51L29.155 25.845l-1.244-.512a18.178 18.178 0 0 0-6.267-1.133 17.778 17.778 0 1 0 0 35.556A17.176 17.176 0 0 0 38.6 41.978a15.089 15.089 0 0 0-1.733-7.311V31.11h7.355v-7.355h6.956V16.8h7.355l-.066-12.667z" fill="#262A82"/>
</svg>
