<svg width="72" height="58" viewBox="0 0 72 58" fill="none" xmlns="http://www.w3.org/2000/svg">
  <path d="M40.645.333L34.6 6.4l2.489 2.467 3.556-3.578 16.733 16.733V54.09H24.044V51l16.578-16.556A11.933 11.933 0 0 0 44 26.111a12.11 12.11 0 0 0-20.756-8.444L15.8 25l2.667 2.555 7.355-7.444A8.59 8.59 0 0 1 38.222 32L22.378 47.822 6.488 32a8.578 8.578 0 0 1 6.223-14.445 8.333 8.333 0 0 1 3.445.734l1.422-3.222A12.068 12.068 0 0 0 .644 26.177a12.022 12.022 0 0 0 3.312 8.312l2.51 2.489L.445 42.91 2.911 45.4l5.978-6 11.644 11.622v6.667h40.423V25.6l8.11 8.111 2.49-2.489L40.645.333z" fill="#262A82"/>
</svg>
